<?xml version="1.0" standalone="no"?><!DOCTYPE svg PUBLIC "-//W3C//DTD SVG 1.1//EN" "http://www.w3.org/Graphics/SVG/1.1/DTD/svg11.dtd"><svg t="1615278774299" class="icon" viewBox="0 0 1024 1024" version="1.1" xmlns="http://www.w3.org/2000/svg" p-id="1556" xmlns:xlink="http://www.w3.org/1999/xlink" width="64" height="64"><defs><style type="text/css"></style></defs><path d="M725.333333 213.333333a213.333333 213.333333 0 0 0-202.24 145.493334 42.666667 42.666667 0 0 0 10.666667 42.666666 189.866667 189.866667 0 0 1 34.56 44.8 42.666667 42.666667 0 0 0 37.12 21.333334h98.56a146.773333 146.773333 0 0 1 128 72.106666 42.666667 42.666667 0 0 0 35.84 20.906667 42.666667 42.666667 0 0 0 35.84-19.2A213.333333 213.333333 0 0 0 725.333333 213.333333z" fill="#F8D800" p-id="1557"></path><path d="M904.96 497.92A234.24 234.24 0 0 0 704 384h-75.093333a282.026667 282.026667 0 0 0-35.413334-42.666667A298.666667 298.666667 0 1 0 384 853.333333h320a235.093333 235.093333 0 0 0 234.666667-234.666666 228.693333 228.693333 0 0 0-33.706667-120.746667z" fill="#BBDEFB" p-id="1558"></path></svg>