<?xml version="1.0" standalone="no"?><!DOCTYPE svg PUBLIC "-//W3C//DTD SVG 1.1//EN" "http://www.w3.org/Graphics/SVG/1.1/DTD/svg11.dtd"><svg t="1615278884360" class="icon" viewBox="0 0 1024 1024" version="1.1" xmlns="http://www.w3.org/2000/svg" p-id="1860" xmlns:xlink="http://www.w3.org/1999/xlink" width="64" height="64"><defs><style type="text/css"></style></defs><path d="M725.333333 85.333333a213.333333 213.333333 0 0 0-202.24 145.493334 42.666667 42.666667 0 0 0 10.666667 42.666666 189.866667 189.866667 0 0 1 34.56 42.666667 42.666667 42.666667 0 0 0 37.12 21.333333h98.56a146.773333 146.773333 0 0 1 128 72.106667 42.666667 42.666667 0 0 0 35.84 20.906667 42.666667 42.666667 0 0 0 35.84-19.2A213.333333 213.333333 0 0 0 725.333333 85.333333z" fill="#F8D800" p-id="1861"></path><path d="M904.96 369.92A234.24 234.24 0 0 0 704 256h-75.093333a282.026667 282.026667 0 0 0-35.413334-42.666667A298.666667 298.666667 0 1 0 384 725.333333h320a235.093333 235.093333 0 0 0 234.666667-234.666666 228.693333 228.693333 0 0 0-33.706667-120.746667z" fill="#BBDEFB" p-id="1862"></path><path d="M384 725.333333a42.666667 42.666667 0 0 1-42.666667-42.666666v-85.333334a42.666667 42.666667 0 0 1 85.333334 0v85.333334a42.666667 42.666667 0 0 1-42.666667 42.666666zM640 682.666667a42.666667 42.666667 0 0 1-42.666667-42.666667v-85.333333a42.666667 42.666667 0 0 1 85.333334 0v85.333333a42.666667 42.666667 0 0 1-42.666667 42.666667zM512 810.666667a42.666667 42.666667 0 0 1-42.666667-42.666667v-128a42.666667 42.666667 0 0 1 85.333334 0v128a42.666667 42.666667 0 0 1-42.666667 42.666667z" fill="#8AC8FB" p-id="1863"></path><path d="M512 896m-42.666667 0a42.666667 42.666667 0 1 0 85.333334 0 42.666667 42.666667 0 1 0-85.333334 0Z" fill="#53AFFB" p-id="1864"></path><path d="M384 810.666667m-42.666667 0a42.666667 42.666667 0 1 0 85.333334 0 42.666667 42.666667 0 1 0-85.333334 0Z" fill="#53AFFB" p-id="1865"></path><path d="M640 768m-42.666667 0a42.666667 42.666667 0 1 0 85.333334 0 42.666667 42.666667 0 1 0-85.333334 0Z" fill="#53AFFB" p-id="1866"></path></svg>