<?xml version="1.0" standalone="no"?><!DOCTYPE svg PUBLIC "-//W3C//DTD SVG 1.1//EN" "http://www.w3.org/Graphics/SVG/1.1/DTD/svg11.dtd"><svg t="1615278921834" class="icon" viewBox="0 0 1024 1024" version="1.1" xmlns="http://www.w3.org/2000/svg" p-id="2016" xmlns:xlink="http://www.w3.org/1999/xlink" width="64" height="64"><defs><style type="text/css"></style></defs><path d="M904.96 412.586667A234.24 234.24 0 0 0 704 298.666667h-75.093333a282.026667 282.026667 0 0 0-35.413334-42.666667A298.666667 298.666667 0 1 0 384 768h320a235.093333 235.093333 0 0 0 234.666667-234.666667 228.693333 228.693333 0 0 0-33.706667-120.746666z" fill="#BBDEFB" p-id="2017"></path><path d="M554.666667 896h-6.826667a42.666667 42.666667 0 0 1-35.84-42.666667v-42.666666h-42.666667a42.666667 42.666667 0 0 1-33.706666-16.213334 42.666667 42.666667 0 0 1-7.68-36.693333l42.666666-170.666667A42.666667 42.666667 0 0 1 512 554.666667h42.666667a42.666667 42.666667 0 0 1 34.56 17.92 42.666667 42.666667 0 0 1 5.973333 38.4L571.306667 682.666667H597.333333a42.666667 42.666667 0 0 1 34.56 17.92 42.666667 42.666667 0 0 1 5.973334 38.4l-42.666667 128A42.666667 42.666667 0 0 1 554.666667 896z" fill="#FE9517" p-id="2018"></path></svg>