<svg width="1024" height="1024" xmlns="http://www.w3.org/2000/svg" class="icon">
 <defs>
  <style type="text/css"/>
 </defs>
 <g>
  <title>background</title>
  <rect fill="none" id="canvas_background" height="402" width="582" y="-1" x="-1"/>
 </g>
 <g>
  <title>Layer 1</title>
  <path id="svg_1" fill="#BBDEFB" d="m904.96,369.92a234.24,234.24 0 0 0 -200.96,-113.92l-75.09333,0a282.02667,282.02667 0 0 0 -35.41334,-42.66667a298.66667,298.66667 0 1 0 -209.49333,512l320,0a235.09333,235.09333 0 0 0 234.66667,-234.66666a228.69333,228.69333 0 0 0 -33.70667,-120.74667z"/>
  <path id="svg_2" fill="#8AC8FB" d="m682.66667,554.66667l0,85.33333l0,-85.33333zm-170.66667,256a42.66667,42.66667 0 0 1 -42.66667,-42.66667l0,-128a42.66667,42.66667 0 0 1 85.33334,0l0,128a42.66667,42.66667 0 0 1 -42.66667,42.66667z"/>
  <path id="svg_3" fill="#53AFFB" d="m512,896m-42.66667,0a42.66667,42.66667 0 1 0 85.33334,0a42.66667,42.66667 0 1 0 -85.33334,0z"/>
 </g>
</svg>