<?xml version="1.0" standalone="no"?><!DOCTYPE svg PUBLIC "-//W3C//DTD SVG 1.1//EN" "http://www.w3.org/Graphics/SVG/1.1/DTD/svg11.dtd"><svg t="1615278661429" class="icon" viewBox="0 0 1024 1024" version="1.1" xmlns="http://www.w3.org/2000/svg" p-id="1354" width="64" height="64" xmlns:xlink="http://www.w3.org/1999/xlink"><defs><style type="text/css"></style></defs><path d="M512 512m-213.333333 0a213.333333 213.333333 0 1 0 426.666666 0 213.333333 213.333333 0 1 0-426.666666 0Z" fill="#F8D800" p-id="1355"></path><path d="M512 256a42.666667 42.666667 0 0 1-42.666667-42.666667V128a42.666667 42.666667 0 0 1 85.333334 0v85.333333a42.666667 42.666667 0 0 1-42.666667 42.666667zM512 938.666667a42.666667 42.666667 0 0 1-42.666667-42.666667v-85.333333a42.666667 42.666667 0 0 1 85.333334 0v85.333333a42.666667 42.666667 0 0 1-42.666667 42.666667zM300.8 343.466667a42.666667 42.666667 0 0 1-30.293333-12.373334L210.346667 270.506667a42.666667 42.666667 0 0 1 60.16-60.16l60.586666 60.16a42.666667 42.666667 0 0 1 0 60.586666 42.666667 42.666667 0 0 1-30.293333 12.373334zM783.36 826.026667a42.666667 42.666667 0 0 1-29.866667-12.373334l-60.586666-60.16a42.666667 42.666667 0 0 1 60.586666-60.586666l60.16 60.586666a42.666667 42.666667 0 0 1 0 60.16 42.666667 42.666667 0 0 1-30.293333 12.373334zM213.333333 554.666667H128a42.666667 42.666667 0 0 1 0-85.333334h85.333333a42.666667 42.666667 0 0 1 0 85.333334zM896 554.666667h-85.333333a42.666667 42.666667 0 0 1 0-85.333334h85.333333a42.666667 42.666667 0 0 1 0 85.333334zM240.64 826.026667a42.666667 42.666667 0 0 1-30.293333-12.373334 42.666667 42.666667 0 0 1 0-60.16l60.16-60.586666a42.666667 42.666667 0 0 1 60.586666 60.586666l-60.586666 60.16a42.666667 42.666667 0 0 1-29.866667 12.373334zM725.333333 343.466667a42.666667 42.666667 0 0 1-30.293333-12.373334 42.666667 42.666667 0 0 1 0-60.586666l60.586667-60.16a42.666667 42.666667 0 1 1 60.16 60.16l-62.293334 60.586666a42.666667 42.666667 0 0 1-28.16 12.373334z" fill="#FE9517" p-id="1356"></path></svg>