<?xml version="1.0" standalone="no"?><!DOCTYPE svg PUBLIC "-//W3C//DTD SVG 1.1//EN" "http://www.w3.org/Graphics/SVG/1.1/DTD/svg11.dtd"><svg t="1615279181537" class="icon" viewBox="0 0 1024 1024" version="1.1" xmlns="http://www.w3.org/2000/svg" p-id="3995" xmlns:xlink="http://www.w3.org/1999/xlink" width="64" height="64"><defs><style type="text/css"></style></defs><path d="M904.96 412.586667A234.24 234.24 0 0 0 704 298.666667h-75.093333a282.026667 282.026667 0 0 0-35.413334-42.666667A298.666667 298.666667 0 1 0 384 768h320a235.093333 235.093333 0 0 0 234.666667-234.666667 228.693333 228.693333 0 0 0-33.706667-120.746666z" fill="#BBDEFB" p-id="3996"></path><path d="M644.266667 752.213333L597.333333 725.333333l46.933334-26.88a42.666667 42.666667 0 0 0-42.666667-74.24l-46.933333 27.306667V597.333333a42.666667 42.666667 0 0 0-85.333334 0v54.186667l-46.933333-27.306667a42.666667 42.666667 0 0 0-42.666667 74.24L426.666667 725.333333l-46.933334 26.88a42.666667 42.666667 0 0 0 21.333334 79.786667 42.666667 42.666667 0 0 0 21.333333-5.546667l46.933333-27.306666V853.333333a42.666667 42.666667 0 0 0 85.333334 0v-54.186666l46.933333 27.306666a42.666667 42.666667 0 0 0 58.026667-15.786666 42.666667 42.666667 0 0 0-15.36-58.453334z" fill="#309FFB" p-id="3997"></path></svg>