<?xml version="1.0" standalone="no"?><!DOCTYPE svg PUBLIC "-//W3C//DTD SVG 1.1//EN" "http://www.w3.org/Graphics/SVG/1.1/DTD/svg11.dtd"><svg t="1615279364666" class="icon" viewBox="0 0 1024 1024" version="1.1" xmlns="http://www.w3.org/2000/svg" p-id="4896" xmlns:xlink="http://www.w3.org/1999/xlink" width="64" height="64"><defs><style type="text/css"></style></defs><path d="M789.333333 554.666667H128a42.666667 42.666667 0 0 1 0-85.333334h661.333333a64 64 0 0 0 0-128 42.666667 42.666667 0 0 1 0-85.333333 149.333333 149.333333 0 0 1 0 298.666667z" fill="#53AFFB" p-id="4897"></path><path d="M426.666667 896a42.666667 42.666667 0 0 1 0-85.333333 42.666667 42.666667 0 0 0 0-85.333334H298.666667A213.333333 213.333333 0 0 1 298.666667 298.666667h256a42.666667 42.666667 0 0 0 0-85.333334 42.666667 42.666667 0 0 1 0-85.333333 128 128 0 0 1 0 256H298.666667a128 128 0 0 0 0 256h128a128 128 0 0 1 0 256z" fill="#BBDEFB" p-id="4898"></path></svg>