<?xml version="1.0" standalone="no"?><!DOCTYPE svg PUBLIC "-//W3C//DTD SVG 1.1//EN" "http://www.w3.org/Graphics/SVG/1.1/DTD/svg11.dtd"><svg t="1615279429231" class="icon" viewBox="0 0 1024 1024" version="1.1" xmlns="http://www.w3.org/2000/svg" p-id="5347" xmlns:xlink="http://www.w3.org/1999/xlink" width="64" height="64"><defs><style type="text/css"></style></defs><path d="M883.2 295.253333A160.426667 160.426667 0 0 1 853.333333 298.666667a128 128 0 0 1-128-128 160.426667 160.426667 0 0 1 3.413334-29.866667 42.666667 42.666667 0 0 0-51.2-49.92 213.333333 213.333333 0 0 0-93.013334 367.786667 42.666667 42.666667 0 0 0 28.16 10.666666h91.306667a146.773333 146.773333 0 0 1 74.24 20.053334 42.666667 42.666667 0 0 0 21.333333 5.546666 38.826667 38.826667 0 0 0 18.346667-4.266666 213.333333 213.333333 0 0 0 115.2-143.786667 42.666667 42.666667 0 0 0-10.666667-39.68 42.666667 42.666667 0 0 0-39.253333-11.946667z" fill="#7BA0B2" p-id="5348"></path><path d="M904.96 497.92A234.24 234.24 0 0 0 704 384h-75.093333a282.026667 282.026667 0 0 0-35.413334-42.666667A298.666667 298.666667 0 1 0 384 853.333333h320a235.093333 235.093333 0 0 0 234.666667-234.666666 228.693333 228.693333 0 0 0-33.706667-120.746667z" fill="#BBDEFB" p-id="5349"></path></svg>