<?xml version="1.0" standalone="no"?><!DOCTYPE svg PUBLIC "-//W3C//DTD SVG 1.1//EN" "http://www.w3.org/Graphics/SVG/1.1/DTD/svg11.dtd"><svg t="1615278927646" class="icon" viewBox="0 0 1024 1024" version="1.1" xmlns="http://www.w3.org/2000/svg" p-id="2168" xmlns:xlink="http://www.w3.org/1999/xlink" width="64" height="64"><defs><style type="text/css"></style></defs><path d="M904.96 369.92A234.24 234.24 0 0 0 704 256h-75.093333a282.026667 282.026667 0 0 0-35.413334-42.666667A298.666667 298.666667 0 1 0 384 725.333333h320a235.093333 235.093333 0 0 0 234.666667-234.666666 228.693333 228.693333 0 0 0-33.706667-120.746667z" fill="#BBDEFB" p-id="2169"></path><path d="M640 896h-6.826667a42.666667 42.666667 0 0 1-35.84-42.666667v-42.666666h-42.666666a42.666667 42.666667 0 0 1-33.706667-16.213334 42.666667 42.666667 0 0 1-7.68-36.693333l42.666667-170.666667A42.666667 42.666667 0 0 1 597.333333 554.666667h42.666667a42.666667 42.666667 0 0 1 34.56 17.92 42.666667 42.666667 0 0 1 5.973333 38.4L656.64 682.666667H682.666667a42.666667 42.666667 0 0 1 34.56 17.92 42.666667 42.666667 0 0 1 5.973333 38.4l-42.666667 128A42.666667 42.666667 0 0 1 640 896z" fill="#FE9517" p-id="2170"></path><path d="M384 768a42.666667 42.666667 0 0 1-42.666667-42.666667v-128a42.666667 42.666667 0 0 1 85.333334 0v128a42.666667 42.666667 0 0 1-42.666667 42.666667z" fill="#8AC8FB" p-id="2171"></path><path d="M384 853.333333m-42.666667 0a42.666667 42.666667 0 1 0 85.333334 0 42.666667 42.666667 0 1 0-85.333334 0Z" fill="#53AFFB" p-id="2172"></path></svg>