<?xml version="1.0" standalone="no"?><!DOCTYPE svg PUBLIC "-//W3C//DTD SVG 1.1//EN" "http://www.w3.org/Graphics/SVG/1.1/DTD/svg11.dtd"><svg t="1611818961273" class="icon" viewBox="0 0 1024 1024" version="1.1" xmlns="http://www.w3.org/2000/svg" p-id="4456" width="64" height="64" xmlns:xlink="http://www.w3.org/1999/xlink"><defs><style type="text/css"></style></defs><path d="M489.173109 82.474386c-170.799014 0-309.260529 138.218992-309.26053 308.723294 0 107.340727 22.364357 261.789355 138.209782 377.433188l157.604504 172.899862L640.723733 780.458241c124.235512-124.019595 157.708881-273.7692 157.708882-389.259538 0.001023-170.505325-138.458445-308.724317-309.259506-308.724317z m0 536.910343c-74.260308 0-134.461411-84.135212-134.461412-187.918927 0-103.785761 60.20008-187.918927 134.461412-187.918927s134.461411 84.133166 134.461411 187.918927c-0.001023 103.784738-60.201104 187.918927-134.461411 187.918927z" fill="#FF713C" p-id="4457"></path><path d="M475.728912 958.708971c-0.167822 0-0.335644 0-0.503467-0.008186a17.200754 17.200754 0 0 1-12.19781-5.595438L305.427224 780.211625c-117.852128-117.608581-142.700049-276.516778-142.700049-389.017015 0-179.705871 146.44228-325.904605 326.44184-325.904605S815.609833 211.489762 815.609833 391.19461c0 109.009739-28.238135 267.138176-162.750711 401.416416L487.72513 953.818591a17.153682 17.153682 0 0 1-11.996218 4.89038zM489.167992 99.652628c-161.056116 0-292.079218 130.787742-292.079218 291.541982 0 105.998149 23.104207 255.410064 133.171022 365.283474L476.450343 916.813792l152.281265-148.648528C754.771209 642.334417 781.24721 493.703285 781.24721 391.19461c0-160.754241-131.023102-291.541983-292.079218-291.541982z m0 536.910342c-83.623559 0-151.643746-92.004437-151.643745-205.100238s68.020186-205.100238 151.643745-205.100238 151.643746 92.004437 151.643746 205.100238-68.020186 205.100238-151.643746 205.100238z m0-375.83683c-64.663742 0-117.281123 76.593446-117.281123 170.737616s52.617381 170.737616 117.281123 170.737615 117.281123-76.593446 117.281123-170.737615-52.616358-170.737616-117.281123-170.737616z" fill="#885F44" p-id="4458"></path></svg>