<?xml version="1.0" standalone="no"?><!DOCTYPE svg PUBLIC "-//W3C//DTD SVG 1.1//EN" "http://www.w3.org/Graphics/SVG/1.1/DTD/svg11.dtd"><svg t="1614244527462" class="icon" viewBox="0 0 1024 1024" version="1.1" xmlns="http://www.w3.org/2000/svg" p-id="11754" xmlns:xlink="http://www.w3.org/1999/xlink" width="128" height="128"><defs><style type="text/css"></style></defs><path d="M716.8 0a102.4 102.4 0 0 1 102.4 102.4v819.2a102.4 102.4 0 0 1-102.4 102.4H307.2a102.4 102.4 0 0 1-102.4-102.4V102.4a102.4 102.4 0 0 1 102.4-102.4h409.6z m1.664 50.3552h-78.1056v14.0288a38.4 38.4 0 0 1-38.4 38.4H422.4a38.4 38.4 0 0 1-38.4-38.4l-0.0256-14.0288h-78.4384a51.2 51.2 0 0 0-51.0464 47.3856l-0.1536 3.84v820.864a51.2 51.2 0 0 0 47.3856 51.0464l3.84 0.1536h412.9024a51.2 51.2 0 0 0 51.0464-47.3856l0.1536-3.84V101.5808a51.2 51.2 0 0 0-51.2-51.2z" p-id="11755"></path></svg>